<svg id="Layer_1" data-name="Layer 1" xmlns="http://www.w3.org/2000/svg" viewBox="0 0 815.96 758.35"><defs><style>.cls-1{fill:#e8a94f;}.cls-2{fill:#bf702e;}.cls-3{fill:#db8d40;}.cls-4{fill:#e5a641;}.cls-5{fill:#ce9e49;}</style></defs><title>B Logo Pieces</title><path class="cls-1" d="M897.91,874.72c-9.5,2.59-18.7,4.64-27.6,6.22.61,21.18,1.78,42.28,4.53,63.11a314.33,314.33,0,0,0,81.56-17.63C947.61,920.86,938.85,915,930,909,916.33,899.49,906.54,887.5,897.91,874.72Z" transform="translate(-529.73 -186.64)"/><path class="cls-2" d="M1264.75,418.7c2.26-10.74,2.44-20.81,4.25-31.7,1.27-10.76,3.43-21.33,5.58-31.82a175.9,175.9,0,0,0-20.81-11.78c-6.43,16.83-13.55,33.18-20.77,49.42A120.39,120.39,0,0,1,1264.75,418.7Z" transform="translate(-529.73 -186.64)"/><path class="cls-3" d="M873.23,330A789.06,789.06,0,0,1,796,376.19a553.54,553.54,0,0,1,5.08,60,512.48,512.48,0,0,1,53.38-20.71q11.81-22.62,24.87-44.75C877.43,357.08,875.46,343.5,873.23,330Z" transform="translate(-529.73 -186.64)"/><path class="cls-4" d="M1339.67,423.41c-10.78-33.86-31.24-58.1-57.09-75.23-2.15,10.49-4.31,21.06-5.58,31.82-1.81,10.89-2,21-4.25,31.7a100.68,100.68,0,0,1,19.66,35.47c17.82.73,35.62,2.29,53.28,4.79A156,156,0,0,0,1339.67,423.41Z" transform="translate(-529.73 -186.64)"/><path class="cls-3" d="M1242.77,349.4c-23.56-11.36-50.09-18.22-77.1-22,5.52,17.94,10.19,36.3,15.78,54.5A186.42,186.42,0,0,1,1222,398.82C1229.22,382.58,1236.34,366.23,1242.77,349.4Z" transform="translate(-529.73 -186.64)"/><path class="cls-2" d="M973,854c21.76,13.64,43.31,27.17,63.58,43a414.76,414.76,0,0,0,54.75-39.2c-28.48-6.57-56.83-14.16-86.18-20.61A359,359,0,0,1,973,854Z" transform="translate(-529.73 -186.64)"/><path class="cls-1" d="M964.8,256.65a16,16,0,0,1-.78,4.71q3.9.09,7.8.12c12.34-18,25-36,37.72-54.08-23.65-22-65.82-24.64-115.1-16.63q8.25,28.72,16.06,57.52C940.71,244,964.8,244.45,964.8,256.65Z" transform="translate(-529.73 -186.64)"/><path class="cls-4" d="M1016.1,831.13c29.35,6.45,57.7,14,86.18,20.61a473.05,473.05,0,0,0,36.29-34.1q-18.84-25.32-36-51.66A466.46,466.46,0,0,1,1016.1,831.13Z" transform="translate(-529.73 -186.64)"/><path class="cls-3" d="M957,856.11a372.54,372.54,0,0,1-52.1,18.61C913.54,887.5,923.33,899.49,937,909c8.85,6,17.61,11.86,26.4,17.42a355.75,355.75,0,0,0,62.13-29.48c-20.27-15.81-41.82-29.34-63.58-43C958.76,855.41,957,856.11,957,856.11Z" transform="translate(-529.73 -186.64)"/><path class="cls-2" d="M830.54,885c7.84,20.06,15.28,40.09,24.4,59.92q8-.21,15.9-.83c-2.75-20.83-3.92-41.93-4.53-63.11A275.79,275.79,0,0,1,830.54,885Z" transform="translate(-529.73 -186.64)"/><path class="cls-1" d="M841.56,249.75Q840.39,259,839,268.26c12.78-3.12,26.65-6.25,40.25-8.88C866.5,256.58,854,253.3,841.56,249.75Z" transform="translate(-529.73 -186.64)"/><path class="cls-3" d="M1328.11,491.77a431.81,431.81,0,0,1-49.57-2.48c1.35,25.58-4.86,49.18-9.85,63.59,12.54,18.46,24.45,37.16,36.23,56.25C1319.8,567.58,1327.85,527.17,1328.11,491.77Z" transform="translate(-529.73 -186.64)"/><path class="cls-2" d="M1255.69,552.88a146.4,146.4,0,0,1-5.6,14.07,6.19,6.19,0,0,0-.32.85q-5.22,17.3-11.65,33.29a382.24,382.24,0,0,0,38.52,45.79c5.7-12.62,10.8-25.24,15.28-37.75C1280.14,590,1268.23,571.34,1255.69,552.88Z" transform="translate(-529.73 -186.64)"/><path class="cls-3" d="M1035.12,259.92c5.16-15.12,1.59-23.16.55-25a6.13,6.13,0,0,1-.47-1.16,60.12,60.12,0,0,0-16.66-27.34c-12.75,18.1-25.38,36.1-37.72,54.08C999,260.66,1017.07,260.16,1035.12,259.92Z" transform="translate(-529.73 -186.64)"/><path class="cls-3" d="M811.67,885.22c-2.66,7.66-4.6,15.41-7.67,22.78-3.55,11.23-7.1,22.45-11.06,33.47a314.55,314.55,0,0,0,55,3.41c-9.12-19.83-16.56-39.86-24.4-59.92Q817.5,885.23,811.67,885.22Z" transform="translate(-529.73 -186.64)"/><path class="cls-1" d="M960.82,268.48c-14.51,21.16-28.63,42.3-42.11,63.61,4.93,21.61,9.42,43.32,13.31,65.15,15.63-3.34,30.51-5.91,44.29-7.88,13.15-15.67,26-31.63,38.64-48.73-18.94,1.94-35.39,4.44-47.83,6.62a6.54,6.54,0,0,1-5.49-11.33c34.29-30.45,48.3-52.81,53.49-68C997.07,268.16,979,268.66,960.82,268.48Z" transform="translate(-529.73 -186.64)"/><path class="cls-3" d="M892.32,373.74c1.58,11.36,3.1,22.78,4.68,34.26.07.55.14,1.1.2,1.65,10.52-2.82,20.82-5.27,30.82-7.41-3.89-21.83-8.38-43.54-13.31-65.15Q903.18,355.32,892.32,373.74Z" transform="translate(-529.73 -186.64)"/><path class="cls-4" d="M805.67,885.22a238.79,238.79,0,0,1-33.18-2.32q-6.15,26.77-9.78,54,12.21,2.76,24.23,4.53c4-11,7.51-22.24,11.06-33.47C801.07,900.63,803,892.88,805.67,885.22Z" transform="translate(-529.73 -186.64)"/><path class="cls-3" d="M1339.11,485.77a213.11,213.11,0,0,0-1.42-26.81c-17.66-2.5-35.46-4.06-53.28-4.79a116.94,116.94,0,0,1,5.13,29.12A431.81,431.81,0,0,0,1339.11,485.77Z" transform="translate(-529.73 -186.64)"/><path class="cls-5" d="M1199,667.45c-1.19,2-2.38,4-3.59,6,1.68.8,3.32,1.63,4.89,2.55Q1199.69,671.72,1199,667.45Z" transform="translate(-529.73 -186.64)"/><path class="cls-1" d="M729.15,863.16a204.79,204.79,0,0,1-58-27.15,6.54,6.54,0,0,0-9.69,8l23.59,56.37a6.57,6.57,0,0,0,3.51,3.52q6.52,2.74,13,5.19c2.93-4.21,5.78-8.51,8.4-13C716.53,884.91,722.86,874,729.15,863.16Z" transform="translate(-529.73 -186.64)"/><path class="cls-2" d="M732.15,872.16C725.86,883,719.53,893.91,713,905c-2.62,4.53-5.47,8.83-8.4,13a364.21,364.21,0,0,0,49.11,14.9q3.66-27.23,9.78-54A223.53,223.53,0,0,1,732.15,872.16Z" transform="translate(-529.73 -186.64)"/><path class="cls-2" d="M885.32,368.74q-13,22.15-24.87,44.75c10-3.29,20-6.22,29.75-8.84-.06-.55-.13-1.1-.2-1.65C888.42,391.52,886.9,380.1,885.32,368.74Z" transform="translate(-529.73 -186.64)"/><path class="cls-3" d="M533.2,322.65a6.53,6.53,0,0,0-3.13,7.84l24.35,73.06a6.55,6.55,0,0,0,10,3.28l18-12.73c-14.66-24.45-31-48.27-46.4-73Z" transform="translate(-529.73 -186.64)"/><path class="cls-1" d="M639.08,274.27c-45.28,20.48-81,38.94-96.05,46.88,15.38,24.68,31.74,48.5,46.4,73l41.87-29.56C631.6,334.54,633.39,304.47,639.08,274.27Z" transform="translate(-529.73 -186.64)"/><path class="cls-3" d="M734,274a451,451,0,0,1,37.37,31.11l2.58-19a6.51,6.51,0,0,1,4.65-5.4c8.12-2.36,27.54-7.87,50.44-13.45q1.34-9.25,2.52-18.51c-22.86-6.56-45.33-14-68.26-21C745.59,234,728,240.68,711,247.57A104.21,104.21,0,0,0,734,274Z" transform="translate(-529.73 -186.64)"/><path class="cls-1" d="M677.53,586.85a6.54,6.54,0,0,0,11.41,4.87l30.44-34.24Q699.7,556.92,680,556Z" transform="translate(-529.73 -186.64)"/><path class="cls-3" d="M839.65,202.54c-23.65,6-48.12,13.62-72.35,22.17,22.93,7,45.4,14.48,68.26,21C837.38,231.39,838.83,217,839.65,202.54Z" transform="translate(-529.73 -186.64)"/><path class="cls-3" d="M737.44,526.36l-1.63-34.1a6.55,6.55,0,0,1,2.86-5.74Q745.3,482,752,477.87c-22.15-.39-44.28-.36-66.36.28L680,548q19.68.88,39.36,1.45L735.79,531A6.54,6.54,0,0,0,737.44,526.36Z" transform="translate(-529.73 -186.64)"/><path class="cls-2" d="M726,272a104.21,104.21,0,0,1-23-26.43c-21.06,8.51-41.28,17.28-59.9,25.7-5.69,30.2-7.48,60.27-7.78,90.27l52.4-37a6.55,6.55,0,0,1,10.3,5.88l-3.41,42.2c16.71-12.39,35.75-20,56.41-23.63q3.21-.44,6.31-1.17l6.06-44.72A451,451,0,0,0,726,272Z" transform="translate(-529.73 -186.64)"/><path class="cls-3" d="M880.23,324c2.23,13.46,4.2,27,6.09,40.7q10.83-18.44,22.39-36.65-2.4-10.57-5-21.12C896.52,312.59,888.59,318.33,880.23,324Z" transform="translate(-529.73 -186.64)"/><path class="cls-1" d="M1026.08,338.94q-3.62.33-7.13.69c-12.63,17.1-25.49,33.06-38.64,48.73q9.3-1.32,17.88-2.31,1.51-2.46,2.81-5.05C1008.83,366.37,1017.13,352.33,1026.08,338.94Z" transform="translate(-529.73 -186.64)"/><path class="cls-1" d="M745,470.87a442.51,442.51,0,0,1,50-26.67,553.54,553.54,0,0,0-5.08-60c-13.43,7-26.17,13.17-37.29,18a6.54,6.54,0,0,1-9.06-6.9l4.67-34.43q-3.1.74-6.31,1.17c-20.66,3.59-39.7,11.24-56.41,23.63l-6.92,85.52C700.75,470.51,722.88,470.48,745,470.87Z" transform="translate(-529.73 -186.64)"/><path class="cls-1" d="M912.76,305q2.54,10.54,5,21.12c13.48-21.31,27.6-42.45,42.11-63.61q-3.9,0-7.8-.12C948.52,273.7,933.46,288.89,912.76,305Z" transform="translate(-529.73 -186.64)"/><path class="cls-3" d="M1139.22,734.16c-8.8,10-17.76,19.28-26.7,27.82q17.22,26.32,36,51.66,10.52-11,20.37-22.55-9-27.12-15.79-54.51Q1146.18,735.47,1139.22,734.16Z" transform="translate(-529.73 -186.64)"/><path class="cls-2" d="M1031.08,338.94c-8.95,13.39-17.25,27.43-25.08,42.06q-1.29,2.6-2.81,5.05c7.92-.91,15.34-1.63,22.19-2.18,4.22-15.3,9.27-30.45,13.8-45.62Q1035.07,338.56,1031.08,338.94Z" transform="translate(-529.73 -186.64)"/><path class="cls-3" d="M1210.86,733.78c-1-12.41-2.6-24.79-3.86-36.78q-1.63-13.53-3.67-27c-1.57-.92-3.21-1.75-4.89-2.55a413.6,413.6,0,0,1-32.82,46.41c1.12,4.91,2.31,9.81,3.53,14.71C1183,730.8,1196.89,732.48,1210.86,733.78Z" transform="translate(-529.73 -186.64)"/><path class="cls-3" d="M1159.15,738.58q6.82,27.38,15.79,54.51,14.19-16.68,26.87-34.37c-.19-5-.53-10-1-14.94C1186.89,742.48,1173,740.8,1159.15,738.58Z" transform="translate(-529.73 -186.64)"/><path class="cls-5" d="M1162.62,719.87q-5.14,6.33-10.4,12.29,7,1.3,13.93,2.42C1164.93,729.68,1163.74,724.78,1162.62,719.87Z" transform="translate(-529.73 -186.64)"/><path class="cls-2" d="M882.5,256.34c8.2-1.58,16.3-3,24-4q-7.77-28.81-16.06-57.52c-9,1.45-18.16,3.26-27.52,5.37,6.7,16.65,12.58,33.75,18.08,50.86C881.52,252.78,882,254.56,882.5,256.34Z" transform="translate(-529.73 -186.64)"/><path class="cls-5" d="M1208.81,754.72q5-6.94,9.76-14c-3.57-.29-7.14-.59-10.71-.92C1208.28,744.76,1208.62,749.75,1208.81,754.72Z" transform="translate(-529.73 -186.64)"/><path class="cls-1" d="M1208.33,674q2,13.47,3.67,27c1.26,12,2.82,24.37,3.86,36.78,3.57.33,7.14.63,10.71.92q12.12-18,22.64-36.64c-11.93-6.84-23.33-13.63-34.21-23.06A31.82,31.82,0,0,0,1208.33,674Z" transform="translate(-529.73 -186.64)"/><path class="cls-3" d="M1087.79,327.4c-13.77.17-27.1.86-39.61,1.85-4.53,15.17-9.58,30.32-13.8,45.62,7.56-.62,14.41-1,20.43-1.33A225.76,225.76,0,0,1,1070,352C1076,343.77,1082.06,335.62,1087.79,327.4Z" transform="translate(-529.73 -186.64)"/><path class="cls-3" d="M879.29,256.38l.21,0c-.5-1.78-1-3.56-1.5-5.34-5.5-17.11-11.38-34.21-18.08-50.86q-7.06,1.59-14.27,3.4c-.82,14.46-2.27,28.85-4.09,43.21C854,250.3,866.5,253.58,879.29,256.38Z" transform="translate(-529.73 -186.64)"/><path class="cls-4" d="M1093.79,328.4c-5.73,8.22-11.76,16.37-17.79,24.6a225.76,225.76,0,0,0-15.19,21.54c18-.86,28.66-.51,28.66-.51,35.46,1.3,64.41,5.89,88,12.84-5.59-18.2-10.26-36.56-15.78-54.5A449,449,0,0,0,1093.79,328.4Z" transform="translate(-529.73 -186.64)"/><path class="cls-3" d="M1207,659.45q.66,4.27,1.3,8.56a31.82,31.82,0,0,1,6.67,5c10.88,9.43,22.28,16.22,34.21,23.06,8.27-14.61,15.76-29.39,22.43-44.18a382.24,382.24,0,0,1-38.52-45.79A400,400,0,0,1,1207,659.45Z" transform="translate(-529.73 -186.64)"/></svg>