<svg xmlns="http://www.w3.org/2000/svg" viewBox="0 0 1920 1080"><defs><style>.cls-1{fill:#6b6b6b;}.cls-2,.cls-4{fill:none;}.cls-2{stroke:#000;}.cls-2,.cls-3,.cls-4{stroke-miterlimit:10;stroke-width:4px;}.cls-3{fill:#fff;}.cls-3,.cls-4{stroke:#fff;}</style></defs><title>B Logo</title><g id="Layer_2" data-name="Layer 2"><rect class="cls-1" width="1920" height="1080"/></g><g id="Layer_1" data-name="Layer 1"><path d="M711,744c-23-72.43-131.44-60.18-169.08-53.58a3.4,3.4,0,0,1-2.85-5.89c35.52-31.54,29.14-46.37,28.06-48.31a3.13,3.13,0,0,1-.24-.6c-21.18-70.44-213,29.08-237.36,42a3.4,3.4,0,0,0-1.62,4.08l12.64,37.94a3.4,3.4,0,0,0,5.19,1.7l58.33-41.17a3.39,3.39,0,0,1,5.34,3l-9.59,118.64a3.4,3.4,0,0,0,5.93,2.53L430.08,777a3.38,3.38,0,0,0,.85-2.42l-.84-17.71a3.42,3.42,0,0,1,1.49-3C502.35,706,593,709,593,709c132.4,4.87,90.41,97.88,88.1,102.8a2.11,2.11,0,0,0-.17.44C650.85,912.06,559,949,559,949c-66.83,29.38-111,9.13-129.76-3.69a3.4,3.4,0,0,0-5,4.13l12.25,29.28a3.45,3.45,0,0,0,1.83,1.83C612.62,1053.91,738.93,831.78,711,744ZM437.79,710.16l6.91-51a3.39,3.39,0,0,1,2.42-2.8c13.58-4,87.88-24.83,87.88-9.38,0,16-59.74,52.61-92.5,66.74A3.4,3.4,0,0,1,437.79,710.16Z"/><path class="cls-2" d="M1315,715c-23-72.43-131.44-60.18-169.08-53.58a3.4,3.4,0,0,1-2.85-5.89c35.52-31.54,29.14-46.37,28.06-48.31a3.13,3.13,0,0,1-.24-.6c-21.18-70.44-213,29.08-237.36,42a3.4,3.4,0,0,0-1.62,4.08l12.64,37.94a3.4,3.4,0,0,0,5.19,1.7l58.33-41.17a3.39,3.39,0,0,1,5.34,3l-9.59,118.64a3.4,3.4,0,0,0,5.93,2.53L1034.08,748a3.38,3.38,0,0,0,.85-2.42l-.84-17.71a3.42,3.42,0,0,1,1.49-3C1106.35,677,1197,680,1197,680c132.4,4.87,90.41,97.88,88.1,102.8a2.11,2.11,0,0,0-.17.44C1254.85,883.06,1163,920,1163,920c-66.83,29.38-111,9.13-129.76-3.69a3.4,3.4,0,0,0-5,4.13l12.25,29.28a3.45,3.45,0,0,0,1.83,1.83C1216.62,1024.91,1342.93,802.78,1315,715Zm-273.21-33.84,6.91-51a3.39,3.39,0,0,1,2.42-2.8c13.58-4,87.88-24.83,87.88-9.38,0,16-59.74,52.61-92.5,66.74A3.4,3.4,0,0,1,1041.79,681.16Z"/><path class="cls-3" d="M638,217c-23-72.43-131.44-60.18-169.08-53.58a3.4,3.4,0,0,1-2.85-5.89c35.52-31.54,29.14-46.37,28.06-48.31a3.13,3.13,0,0,1-.24-.6c-21.18-70.44-213,29.08-237.36,42a3.4,3.4,0,0,0-1.62,4.08l12.64,37.94a3.4,3.4,0,0,0,5.19,1.7l58.33-41.17a3.39,3.39,0,0,1,5.34,3.05l-9.59,118.64a3.4,3.4,0,0,0,5.93,2.53L357.08,250a3.38,3.38,0,0,0,.85-2.42l-.84-17.71a3.42,3.42,0,0,1,1.49-3C429.35,179,520,182,520,182c132.4,4.87,90.41,97.88,88.1,102.8a2.11,2.11,0,0,0-.17.44C577.85,385.06,486,422,486,422c-66.83,29.38-111,9.13-129.76-3.69a3.4,3.4,0,0,0-5,4.13l12.25,29.28a3.45,3.45,0,0,0,1.83,1.83C539.62,526.91,665.93,304.78,638,217ZM364.79,183.16l6.91-51a3.39,3.39,0,0,1,2.42-2.8C387.7,125.43,462,104.55,462,120c0,16.05-59.74,52.61-92.5,66.74A3.4,3.4,0,0,1,364.79,183.16Z"/><path class="cls-4" d="M1108,194c-23-72.43-131.44-60.18-169.08-53.58a3.4,3.4,0,0,1-2.85-5.89c35.52-31.54,29.14-46.37,28.06-48.31a3.13,3.13,0,0,1-.24-.6c-21.18-70.44-213,29.08-237.36,42a3.4,3.4,0,0,0-1.62,4.08l12.64,37.94a3.4,3.4,0,0,0,5.19,1.7l58.33-41.17a3.39,3.39,0,0,1,5.34,3.05l-9.59,118.64a3.4,3.4,0,0,0,5.93,2.53L827.08,227a3.38,3.38,0,0,0,.85-2.42l-.84-17.71a3.42,3.42,0,0,1,1.49-3C899.35,156,990,159,990,159c132.4,4.87,90.41,97.88,88.1,102.8a2.11,2.11,0,0,0-.17.44C1047.85,362.06,956,399,956,399c-66.83,29.38-111,9.13-129.76-3.69a3.4,3.4,0,0,0-5,4.13l12.25,29.28a3.45,3.45,0,0,0,1.83,1.83C1009.62,503.91,1135.93,281.78,1108,194ZM834.79,160.16l6.91-51a3.39,3.39,0,0,1,2.42-2.8C857.7,102.43,932,81.55,932,97c0,16-59.74,52.61-92.5,66.74A3.4,3.4,0,0,1,834.79,160.16Z"/></g></svg>