<svg id="Layer_2" data-name="Layer 2" xmlns="http://www.w3.org/2000/svg" viewBox="0 0 449.64 716.88"><defs><style>.cls-1{stroke:#000;stroke-miterlimit:10;}</style></defs><title>Flat Portrait</title><path class="cls-1" d="M782.5,567.5l-15-63s-34-70,0-156c0,0,14-52,24-58,0,0-24.71-72.54,51.13-98.77a309.6,309.6,0,0,0,55.16-24.94C921.35,153,945.5,147.5,1004.5,158.5c0,0,69-10,91,77,0,0,106,4,23,79,0,0,79-43,80,90,0,0,15,109-28,150,0,0,13-245-95-242,0,0-60-27-116,20,0,0-56-46-90-14C869.5,318.5,763.5,344.5,782.5,567.5Z" transform="translate(-751.89 -152.16)"/><path class="cls-1" d="M923.5,499.5s-77-32-99-23-20,23-20,23,0-41,27-49,92,24,92,24S933.5,503.5,923.5,499.5Z" transform="translate(-751.89 -152.16)"/><path class="cls-1" d="M1008.9,499.5s77-32,99-23,20,23,20,23,0-41-27-49-92,24-92,24S998.9,503.5,1008.9,499.5Z" transform="translate(-751.89 -152.16)"/><path class="cls-1" d="M872.5,741.5s1-29,9-32,61-24,61-24l21,8,24-8s64,14,71,18,8,38,8,38l-48-20-36-8h-42Z" transform="translate(-751.89 -152.16)"/><path class="cls-1" d="M940.5,804.5c-26,13-136-119-136-119s5,180,165,183,179-194,173-183-133,117-143,118,0-44,0-44c-26,8-56,0-56,0S946.5,801.5,940.5,804.5Z" transform="translate(-751.89 -152.16)"/></svg>