<svg xmlns="http://www.w3.org/2000/svg" viewBox="0 0 391.15 388.53"><defs><style>.cls-1{fill:#fff;stroke:#fff;stroke-miterlimit:10;stroke-width:4px;}</style></defs><title>Asset 2</title><g id="Layer_2" data-name="Layer 2"><g id="Layer_1-2" data-name="Layer 1"><path class="cls-1" d="M385.27,135.37c-23-72.43-131.44-60.18-169.08-53.58a3.4,3.4,0,0,1-2.85-5.89c35.52-31.54,29.14-46.37,28.06-48.31a3.41,3.41,0,0,1-.24-.6C220-43.45,28.12,56.06,3.8,69a3.39,3.39,0,0,0-1.62,4.07l12.64,38a3.41,3.41,0,0,0,5.19,1.7L78.34,71.56a3.39,3.39,0,0,1,5.34,3L74.09,193.24A3.4,3.4,0,0,0,80,195.78l24.33-27.38a3.35,3.35,0,0,0,.85-2.42l-.84-17.71a3.4,3.4,0,0,1,1.49-3c70.77-47.88,161.42-44.92,161.42-44.92,132.4,4.86,90.41,97.88,88.1,102.79a2.65,2.65,0,0,0-.17.44c-30.08,99.82-121.93,136.77-121.93,136.77-66.83,29.37-111,9.13-129.76-3.7a3.4,3.4,0,0,0-5,4.14l12.25,29.27a3.42,3.42,0,0,0,1.83,1.83C286.89,445.27,413.2,223.15,385.27,135.37ZM112.06,101.52l6.91-51a3.41,3.41,0,0,1,2.42-2.81c13.58-3.94,87.88-24.82,87.88-9.37,0,16.05-59.74,52.61-92.5,66.74A3.4,3.4,0,0,1,112.06,101.52Z"/></g></g></svg>