<svg width="47" height="57" viewBox="0 0 47 57" fill="none" xmlns="http://www.w3.org/2000/svg">
<path d="M7.60003 22.55C9.00003 20.1 11.05 18.1 13.75 16.55C16.45 15 19.525 14.225 22.975 14.225C26.675 14.225 30 15.1 32.95 16.85C35.9 18.6 38.225 21.075 39.925 24.275C41.625 27.425 42.475 31.1 42.475 35.3C42.475 39.45 41.625 43.15 39.925 46.4C38.225 49.65 35.875 52.175 32.875 53.975C29.925 55.775 26.625 56.675 22.975 56.675C19.425 56.675 16.3 55.9 13.6 54.35C10.95 52.8 8.95002 50.825 7.60003 48.425V56H0.775024L0.775024 0.5L7.60003 0.5L7.60003 22.55ZM35.5 35.3C35.5 32.2 34.875 29.5 33.625 27.2C32.375 24.9 30.675 23.15 28.525 21.95C26.425 20.75 24.1 20.15 21.55 20.15C19.05 20.15 16.725 20.775 14.575 22.025C12.475 23.225 10.775 25 9.47502 27.35C8.22502 29.65 7.60003 32.325 7.60003 35.375C7.60003 38.475 8.22502 41.2 9.47502 43.55C10.775 45.85 12.475 47.625 14.575 48.875C16.725 50.075 19.05 50.675 21.55 50.675C24.1 50.675 26.425 50.075 28.525 48.875C30.675 47.625 32.375 45.85 33.625 43.55C34.875 41.2 35.5 38.45 35.5 35.3Z" fill="#554F65"/>
<path d="M12.0391 22.55C13.4391 20.1 15.4891 18.1 18.189 16.55C20.8891 15 23.9641 14.225 27.4141 14.225C31.1141 14.225 34.4391 15.1 37.3891 16.85C40.3391 18.6 42.664 21.075 44.3641 24.275C46.0641 27.425 46.9141 31.1 46.9141 35.3C46.9141 39.45 46.0641 43.15 44.3641 46.4C42.664 49.65 40.314 52.175 37.314 53.975C34.364 55.775 31.0641 56.675 27.4141 56.675C23.8641 56.675 20.7391 55.9 18.0391 54.35C15.3891 52.8 13.3891 50.825 12.0391 48.425V56H5.21405L5.21405 0.5L12.0391 0.5V22.55ZM39.939 35.3C39.939 32.2 39.3141 29.5 38.0641 27.2C36.8141 24.9 35.114 23.15 32.9641 21.95C30.8641 20.75 28.539 20.15 25.989 20.15C23.489 20.15 21.1641 20.775 19.0141 22.025C16.9141 23.225 15.2141 25 13.9141 27.35C12.6641 29.65 12.0391 32.325 12.0391 35.375C12.0391 38.475 12.6641 41.2 13.9141 43.55C15.2141 45.85 16.9141 47.625 19.0141 48.875C21.1641 50.075 23.489 50.675 25.989 50.675C28.539 50.675 30.8641 50.075 32.9641 48.875C35.114 47.625 36.8141 45.85 38.0641 43.55C39.3141 41.2 39.939 38.45 39.939 35.3Z" fill="#FDAD4F"/>
</svg>
