<svg width="672" height="715" viewBox="0 0 672 715" fill="none" xmlns="http://www.w3.org/2000/svg">
<path d="M162.53 378.402C163.766 350.053 172.885 322.736 189.887 296.448C206.889 270.161 230.811 249.076 261.654 233.193C294.732 216.158 328.485 208.673 362.915 210.737C397.344 212.8 429.524 224.222 459.454 245.004C489.154 265.338 513.672 294.279 533.008 331.826C552.114 368.927 561.55 405.918 561.314 442.799C561.079 479.681 551.695 513.073 533.162 542.976C515.076 572.65 489.718 595.888 457.087 612.692C425.351 629.036 393.845 636.494 362.572 635.068C331.745 633.411 304.772 624.963 281.654 609.722L316.528 677.442L255.513 708.863L0 212.698L61.015 181.276L162.53 378.402ZM470.652 363.938C456.381 336.225 438.363 314.964 416.599 300.157C394.835 285.35 371.581 277.532 346.835 276.702C322.537 275.642 298.989 280.982 276.192 292.722C253.843 304.232 235.935 320.523 222.469 341.596C209.219 361.992 202.193 385.687 201.391 412.681C200.804 438.998 207.532 465.789 221.574 493.056C235.846 520.77 253.979 542.254 275.973 557.508C298.184 572.085 321.553 580.126 346.082 581.633C370.827 582.463 394.375 577.123 416.725 565.613C439.522 553.873 457.545 537.805 470.794 517.41C484.26 496.336 491.286 472.641 491.872 446.325C492.228 419.561 485.155 392.099 470.652 363.938Z" fill="#554F65"/>
<path d="M202.759 357.684C203.996 329.336 213.115 302.018 230.117 275.731C247.119 249.444 271.041 228.359 301.884 212.475C334.961 195.441 368.715 187.956 403.144 190.019C437.574 192.083 469.754 203.505 499.684 224.286C529.384 244.621 553.902 273.561 573.238 311.109C592.344 348.21 601.779 385.201 601.544 422.082C601.309 458.963 591.924 492.356 573.392 522.259C555.306 551.932 529.948 575.171 497.317 591.975C465.58 608.319 434.075 615.777 402.801 614.351C371.974 612.694 345.002 604.245 321.884 589.005L356.758 656.725L295.743 688.146L40.2296 191.98L101.245 160.559L202.759 357.684ZM510.882 343.221C496.61 315.507 478.592 294.247 456.829 279.44C435.065 264.633 411.81 256.815 387.065 255.985C362.766 254.925 339.219 260.265 316.422 272.005C294.072 283.514 276.164 299.806 262.698 320.879C249.449 341.275 242.423 364.97 241.62 391.964C241.034 418.28 247.762 445.072 261.804 472.339C276.076 500.053 294.209 521.536 316.202 536.79C338.413 551.367 361.783 559.409 386.312 560.916C411.057 561.745 434.605 556.406 456.954 544.896C479.751 533.156 497.774 517.088 511.023 496.692C524.489 475.619 531.515 451.924 532.102 425.608C532.457 398.844 525.384 371.382 510.882 343.221Z" fill="#FDAD4F"/>
</svg>
